<?xml version="1.0" encoding="UTF-8"?>
<!DOCTYPE svg PUBLIC "-//W3C//DTD SVG 1.0//EN" "http://www.w3.org/TR/2001/REC-SVG-20010904/DTD/svg10.dtd">
<!-- Creator: CorelDRAW 2020 (64-Bit) -->
<svg xmlns="http://www.w3.org/2000/svg" xml:space="preserve" width="1024px" height="1024px" version="1.0" shape-rendering="geometricPrecision" text-rendering="geometricPrecision" image-rendering="optimizeQuality" fill-rule="evenodd" clip-rule="evenodd"
viewBox="0 0 1024 1024"
 xmlns:xlink="http://www.w3.org/1999/xlink"
 xmlns:xodm="http://www.corel.com/coreldraw/odm/2003">
 <g id="Layer_x0020_1">
  <metadata id="CorelCorpID_0Corel-Layer"/>
  <g id="_2442604408512">
   <circle fill="#FFA372" cx="757.03" cy="444.59" r="266.97"/>
   <path fill="#9E9E9E" d="M778.08 587.52c68.61,-15.37 137.75,23.6 160.13,90.25 22.38,66.67 -9.23,139.46 -73.23,168.61l-754.39 0c-83.54,-36.33 -127.89,-128.33 -104.28,-216.31 23.62,-87.97 108.08,-145.4 198.58,-135 -15.72,-72.68 10.73,-148.03 68.43,-194.94 57.71,-46.91 136.87,-57.41 204.81,-27.18 67.94,30.24 113.12,96.08 116.9,170.35 42.27,-41.01 108.35,-44.4 154.61,-7.96 46.25,36.45 58.41,101.49 28.44,152.18z"/>
  </g>
  <rect fill="none" width="1024" height="1024"/>
 </g>
</svg>
